#!OML:ASF I:\golf\golf\golf 2\Subject 1\2002-09-07\Subject1.ASF
:FULLY-SPECIFIED
:DEGREES
284
root 0.685634 9.2441 -4.35645 7.19347 3.11771 -5.29358
lowerback 41.0574 8.1716 4.9765
upperback 18.2916 11.9432 8.03701
thorax 0.118252 5.67922 1.91412
lowerneck -15.6013 -7.02775 -3.24236
upperneck 25.0611 -7.09458 -6.12021
head 10.5189 -4.149 -2.57332
rclavicle -1.04958e-013 0
rhumerus 27.1524 -4.03782 -70.3937
rradius 32.2213
rwrist 19.0639
rhand -54.0967 68.3714
rfingers 7.12502
rthumb -26.5159 40.207
lclavicle -1.04958e-013 0
lhumerus -39.0299 -34.9766 99.0352
lradius 95.3656
lwrist -13.5132
lhand -49.181 21.0482
lfingers 7.12502
lthumb -21.8028 49.8401
rfemur -111.154 -61.3042 49.1517
rtibia 142.045
rfoot -26.6964 25.2292
rtoes 4.34303
lfemur -99.1509 43.2334 -21.2445
ltibia 140.686
lfoot -36.2422 -24.8817
ltoes -28.0143
285
root 0.683793 9.25104 -4.35357 7.21557 3.11955 -5.28798
lowerback 41.0647 8.16143 4.97981
upperback 18.2799 11.9326 8.02552
thorax 0.106554 5.67431 1.90263
lowerneck -15.612 -7.01211 -3.1932
upperneck 25.0431 -7.08035 -6.14542
head 10.511 -4.14134 -2.58785
rclavicle -1.39944e-013 2.22639e-014
rhumerus 27.1666 -3.94996 -70.3446
rradius 32.2365
rwrist 19.1039
rhand -53.9424 68.2801
rfingers 7.12502
rthumb -26.3681 40.0934
lclavicle -1.39944e-013 2.22639e-014
lhumerus -39.0795 -35.0105 99.025
lradius 95.4033
lwrist -13.5876
lhand -49.2394 21.083
lfingers 7.12502
lthumb -21.8589 49.8683
rfemur -111.222 -61.5879 49.1118
rtibia 142.153
rfoot -26.449 25.9079
rtoes 5.88802
lfemur -99.2272 42.8133 -21.0824
ltibia 140.603
lfoot -34.589 -26.5318
ltoes -24.1914
286
root 0.683289 9.24799 -4.35094 7.23077 3.15069 -5.38191
lowerback 41.0683 8.09531 5.13715
upperback 18.2855 11.9047 7.99478
thorax 0.149213 5.67263 1.80922
lowerneck -15.6742 -6.98188 -3.11661
upperneck 25.013 -7.06222 -6.13193
head 10.5087 -4.12559 -2.5945
rclavicle 9.85972e-014 3.02153e-014
rhumerus 27.2215 -3.95843 -70.3874
rradius 32.3073
rwrist 19.1697
rhand -53.7792 68.4112
rfingers 7.12502
rthumb -26.2119 40.2013
lclavicle 9.85972e-014 3.02153e-014
lhumerus -39.0541 -35.0881 98.9266
lradius 95.4218
lwrist -13.5504
lhand -49.2282 20.8957
lfingers 7.12502
lthumb -21.8482 49.6823
rfemur -111.332 -61.505 49.4247
rtibia 142.18
rfoot -27.023 25.1853
rtoes 3.46429
lfemur -99.3017 42.846 -20.9798
ltibia 140.666
lfoot -34.8192 -26.2964
ltoes -24.5108
287
root 0.683425 9.2469 -4.34758 7.3037 3.18175 -5.41724
lowerback 41.0037 8.03227 5.25208
upperback 18.2908 11.8619 7.94838
thorax 0.20691 5.66382 1.72978
lowerneck -15.729 -6.9653 -3.1495
upperneck 24.9652 -7.05548 -6.03753
head 10.5073 -4.11536 -2.55582
rclavicle 1.59028e-014 -1.11319e-014
rhumerus 27.3299 -3.96691 -70.4403
rradius 32.2718
rwrist 19.1547
rhand -53.5189 68.6592
rfingers 7.12502
rthumb -25.9627 40.4125
lclavicle 1.59028e-014 -1.11319e-014
lhumerus -39.0113 -35.1331 98.8372
lradius 95.4459
lwrist -13.5504
lhand -49.2537 20.7501
lfingers 7.12502
lthumb -21.8726 49.5338
rfemur -111.563 -61.134 49.8996
rtibia 142.086
rfoot -27.8078 23.6725
rtoes -0.949323
lfemur -99.5875 42.2999 -20.9331
ltibia 140.614
lfoot -34.0269 -26.7058
ltoes -23.2162
288
root 0.682549 9.24716 -4.34459 7.39902 3.2011 -5.37541
lowerback 40.9304 8.01485 5.2316
upperback 18.2764 11.8308 7.92834
thorax 0.213091 5.64974 1.73348
lowerneck -15.7572 -6.97569 -3.22782
upperneck 24.9577 -7.06762 -5.96234
head 10.5169 -4.11951 -2.51964
rclavicle -1.11319e-013 -2.54444e-014
rhumerus 27.4157 -3.98257 -70.5064
rradius 32.1695
rwrist 19.2288
rhand -53.397 68.8196
rfingers 7.12502
rthumb -25.846 40.5558
lclavicle -1.11319e-013 -2.54444e-014
lhumerus -39.0056 -35.1338 98.8423
lradius 95.4797
lwrist -13.6225
lhand -49.2906 20.8821
lfingers 7.12502
lthumb -21.9081 49.6617
rfemur -111.736 -60.9435 49.997
rtibia 142.018
rfoot -27.71 23.5026
rtoes -1.47466
lfemur -99.8764 41.7 -20.941
ltibia 140.512
lfoot -32.7393 -27.56
ltoes -21.0467
289
root 0.680051 9.24548 -4.3416 7.4149 3.20123 -5.3371
lowerback 40.9298 8.02174 5.17403
upperback 18.2653 11.8218 7.9462
thorax 0.18581 5.63999 1.7797
lowerneck -15.788 -6.98899 -3.34425
upperneck 25.0329 -7.06298 -5.90929
head 10.559 -4.12184 -2.48657
rclavicle -5.725e-014 -4.92986e-014
rhumerus 27.4343 -4.03922 -70.6121
rradius 32.1784
rwrist 19.2789
rhand -53.3007 68.9013
rfingers 7.12502
rthumb -25.7537 40.6241
lclavicle -5.725e-014 -4.92986e-014
lhumerus -39.0505 -35.0876 98.9134
lradius 95.5272
lwrist -13.6889
lhand -49.3778 21.2812
lfingers 7.12502
lthumb -21.9918 50.051
rfemur -111.636 -60.9742 49.7247
rtibia 142.002
rfoot -27.2502 24.2018
rtoes 0.534088
lfemur -99.93 41.6392 -20.9534
ltibia 140.491
lfoot -32.6675 -27.5482
ltoes -21.487
290
root 0.678241 9.24504 -4.33818 7.45013 3.21264 -5.30299
lowerback 40.8541 8.02971 5.12208
upperback 18.2732 11.8113 7.96722
thorax 0.201854 5.63232 1.83521
lowerneck -15.8107 -6.99244 -3.40793
upperneck 25.0724 -7.04958 -5.9002
head 10.582 -4.12063 -2.47426
rclavicle -6.67916e-014 1.59028e-014
rhumerus 27.4291 -4.14198 -70.756
rradius 32.2561
rwrist 19.3694
rhand -53.1727 68.9328
rfingers 7.12502
rthumb -25.6312 40.6379
lclavicle -6.67916e-014 1.59028e-014
lhumerus -39.1025 -35.0391 98.9815
lradius 95.577
lwrist -13.7205
lhand -49.3951 21.2112
lfingers 7.12502
lthumb -22.0084 49.9791
rfemur -111.635 -60.8549 49.8487
rtibia 141.888
rfoot -27.6546 23.597
rtoes -1.39974
lfemur -100.175 41.3763 -20.9016
ltibia 140.474
lfoot -31.736 -28.3291
ltoes -19.9665
291
root 0.676066 9.24942 -4.33509 7.45013 3.23123 -5.30706
lowerback 40.8296 8.04024 5.10182
upperback 18.3105 11.8142 7.99081
thorax 0.241537 5.63293 1.87371
lowerneck -15.8381 -7.00152 -3.32571
upperneck 24.9719 -7.07397 -5.95687
head 10.5431 -4.13136 -2.50754
rclavicle -3.81667e-014 -9.54166e-015
rhumerus 27.4831 -4.23069 -70.8409
rradius 32.2828
rwrist 19.5266
rhand -53.1867 68.9401
rfingers 7.12502
rthumb -25.6445 40.6472
lclavicle -3.81667e-014 -9.54166e-015
lhumerus -39.067 -35.0549 98.9737
lradius 95.6147
lwrist -13.7154
lhand -49.2519 20.5959
lfingers 7.12502
lthumb -21.8709 49.3798
rfemur -111.647 -60.8643 50.0854
rtibia 141.829
rfoot -28.2219 22.7906
rtoes -3.90297
lfemur -100.28 40.9864 -20.6556
ltibia 140.383
lfoot -30.1442 -29.639
ltoes -16.5874
292
root 0.672916 9.24724 -4.33027 7.40226 3.23865 -5.32107
lowerback 40.8623 8.05719 5.08949
upperback 18.3491 11.8301 8.01695
thorax 0.26676 5.63897 1.90241
lowerneck -15.7914 -7.01195 -3.26296
upperneck 24.8166 -7.11874 -5.94614
head 10.4732 -4.14459 -2.51091
rclavicle -2.54444e-014 -6.20208e-014
rhumerus 27.5587 -4.1116 -70.6953
rradius 32.1829
rwrist 19.4943
rhand -53.306 68.836
rfingers 7.12502
rthumb -25.7589 40.5596
lclavicle -2.54444e-014 -6.20208e-014
lhumerus -39.0236 -35.1074 98.9488
lradius 95.638
lwrist -13.6513
lhand -49.1276 20.3709
lfingers 7.12502
lthumb -21.7516 49.1688
rfemur -111.686 -61.058 50.168
rtibia 141.918
rfoot -28.4657 22.5782
rtoes -4.70503
lfemur -99.996 41.3472 -20.4866
ltibia 140.446
lfoot -30.7722 -29.5096
ltoes -17.6226
293
root 0.669278 9.24012 -4.3241 7.38938 3.23119 -5.29968
lowerback 40.8156 8.09529 5.02092
upperback 18.3593 11.8518 8.04733
thorax 0.271351 5.64475 1.96224
lowerneck -15.6072 -7.02147 -3.29047
upperneck 24.6965 -7.15554 -5.88052
head 10.3971 -4.15439 -2.47475
rclavicle -3.49861e-014 1.43125e-014
rhumerus 27.5396 -3.8969 -70.4861
rradius 32.0846
rwrist 19.3468
rhand -53.3593 68.7828
rfingers 7.12502
rthumb -25.8099 40.5138
lclavicle -3.49861e-014 1.43125e-014
lhumerus -39.075 -35.1326 99.0035
lradius 95.6432
lwrist -13.6208
lhand -49.0621 20.5612
lfingers 7.12502
lthumb -21.6887 49.3663
rfemur -111.744 -61.1542 50.1773
rtibia 141.973
rfoot -28.4823 22.6401
rtoes -5.1362
lfemur -99.7921 42.07 -20.4954
ltibia 140.645
lfoot -32.1773 -28.8745
ltoes -20.3731
294
root 0.665601 9.23904 -4.31951 7.38723 3.23032 -5.24658
lowerback 40.7894 8.12184 4.94989
upperback 18.3652 11.859 8.05729
thorax 0.269648 5.64424 2.0053
lowerneck -15.4927 -7.02225 -3.29954
upperneck 24.6357 -7.16824 -5.85653
head 10.3541 -4.15707 -2.4587
rclavicle 2.8625e-014 5.725e-014
rhumerus 27.5062 -3.83507 -70.4498
rradius 32.0859
rwrist 19.3199
rhand -53.4229 68.9213
rfingers 7.12502
rthumb -25.8707 40.6612
lclavicle 2.8625e-014 5.725e-014
lhumerus -39.0989 -35.143 99.0273
lradius 95.6805
lwrist -13.6721
lhand -49.0369 20.6964
lfingers 7.12502
lthumb -21.6644 49.5043
rfemur -111.835 -61.2743 50.2225
rtibia 142.014
rfoot -28.6231 22.6334
rtoes -5.95775
lfemur -99.7288 42.2749 -20.5066
ltibia 140.711
lfoot -32.4017 -28.8827
ltoes -20.6798
295
root 0.663031 9.23692 -4.31629 7.44964 3.27208 -5.28189
lowerback 40.6704 8.10653 4.97433
upperback 18.3738 11.8458 8.09228
thorax 0.310396 5.63997 2.04433
lowerneck -15.4258 -7.01045 -3.30983
upperneck 24.5735 -7.1435 -5.90014
head 10.318 -4.1512 -2.46348
rclavicle 0 1.59028e-014
rhumerus 27.5028 -3.74055 -70.3819
rradius 32.0346
rwrist 19.4534
rhand -53.7339 69.1453
rfingers 7.12502
rthumb -26.1686 40.9289
lclavicle 0 1.59028e-014
lhumerus -39.0444 -35.1227 99.042
lradius 95.6863
lwrist -13.7576
lhand -49.0219 20.8855
lfingers 7.12502
lthumb -21.6501 49.6951
rfemur -112.158 -61.4079 50.5633
rtibia 142.103
rfoot -28.8377 22.5529
rtoes -6.43925
lfemur -99.8986 42.0702 -20.5138
ltibia 140.671
lfoot -32.1858 -28.9102
ltoes -20.199
296
root 0.660467 9.23677 -4.31479 7.53641 3.32775 -5.38922
lowerback 40.5015 8.08611 5.02347
upperback 18.3737 11.8369 8.18881
thorax 0.346234 5.63558 2.13561
lowerneck -15.3321 -7.0082 -3.43391
upperneck 24.5291 -7.09996 -5.95031
head 10.2896 -4.1472 -2.44972
rclavicle -1.11319e-013 -6.99722e-014
rhumerus 27.4937 -3.51953 -70.1652
rradius 31.9442
rwrist 19.5416
rhand -54.0561 69.2827
rfingers 7.12502
rthumb -26.477 41.1124
lclavicle -1.11319e-013 -6.99722e-014
lhumerus -39.0022 -35.0059 99.1603
lradius 95.5993
lwrist -13.8902
lhand -48.9947 21.1249
lfingers 7.12502
lthumb -21.6239 49.9374
rfemur -112.454 -61.4569 51.0156
rtibia 142.107
rfoot -28.8398 22.6
rtoes -6.12583
lfemur -100.297 41.4613 -20.4321
ltibia 140.533
lfoot -30.8008 -29.6637
ltoes -17.8196
297
root 0.657532 9.24073 -4.31443 7.51141 3.35384 -5.37504
lowerback 40.5812 8.06754 5.01197
upperback 18.3377 11.8207 8.21952
thorax 0.273249 5.62197 2.16661
lowerneck -15.2528 -7.01051 -3.56102
upperneck 24.5486 -7.07485 -5.93704
head 10.2894 -4.1446 -2.41896
rclavicle 4.45278e-014 -2.38542e-014
rhumerus 27.4564 -3.36108 -70.0383
rradius 31.9173
rwrist 19.4912
rhand -54.1225 69.2749
rfingers 7.12502
rthumb -26.5405 41.1142
lclavicle 4.45278e-014 -2.38542e-014
lhumerus -39.0474 -34.9305 99.2558
lradius 95.5643
lwrist -13.873
lhand -48.9632 21.2038
lfingers 7.12502
lthumb -21.5937 50.0198
rfemur -112.476 -61.6237 51.0681
rtibia 142.092
rfoot -28.6434 22.9463
rtoes -5.13147
lfemur -100.353 41.0305 -20.3496
ltibia 140.425
lfoot -29.6114 -30.3585
ltoes -15.7402
298
root 0.655084 9.23534 -4.31046 7.45803 3.37344 -5.38261
lowerback 40.6807 8.02569 5.07168
upperback 18.2915 11.7984 8.18571
thorax 0.212014 5.61361 2.09907
lowerneck -15.1324 -7.00683 -3.59374
upperneck 24.5254 -7.08388 -5.87466
head 10.2619 -4.14322 -2.38667
rclavicle 5.40694e-014 -4.13472e-014
rhumerus 27.3863 -3.38314 -70.1438
rradius 31.953
rwrist 19.4701
rhand -54.0245 69.1971
rfingers 7.12502
rthumb -26.4467 41.0223
lclavicle 5.40694e-014 -4.13472e-014
lhumerus -39.1173 -34.9549 99.2538
lradius 95.5435
lwrist -13.7307
lhand -49.0609 21.2134
lfingers 7.12502
lthumb -21.6875 50.0186
rfemur -112.385 -61.8126 50.932
rtibia 142.164
rfoot -28.4776 23.3682
rtoes -4.0927
lfemur -100.132 41.6301 -20.4208
ltibia 140.589
lfoot -31.0029 -29.6907
ltoes -17.8791
